<svg xmlns:dc="http://purl.org/dc/elements/1.1/" xmlns:cc="http://creativecommons.org/ns#" xmlns:rdf="http://www.w3.org/1999/02/22-rdf-syntax-ns#" xmlns:svg="http://www.w3.org/2000/svg" xmlns="http://www.w3.org/2000/svg" xmlns:sodipodi="http://sodipodi.sourceforge.net/DTD/sodipodi-0.dtd" xmlns:inkscape="http://www.inkscape.org/namespaces/inkscape" version="1.1" x="0px" y="0px" viewBox="0 0 100 125"><g transform="translate(0,-952.36218)"><path style="text-indent:0;text-transform:none;direction:ltr;block-progression:tb;baseline-shift:baseline;color:#000000;enable-background:accumulate;" d="M 7.8125,967.36658 A 1.0001,1.0000371 0 0 0 7,968.36652 l 0,67.99568 a 1.0001,1.0000371 0 0 0 1,1 l 84,0 a 1.0001,1.0000371 0 0 0 1,-1 l 0,-67.99568 a 1.0001,1.0000371 0 0 0 -1,-0.99994 l -84,0 a 1.0001,1.0000371 0 0 0 -0.1875,0 z M 9,969.36646 l 82,0 0,57.40264 -19.25,-21.0924 a 1.0001,1.0000371 0 0 0 -0.90625,-0.3125 1.0001,1.0000371 0 0 0 -0.28125,0.094 l -26.875,13.4367 -10.9375,-12.218 a 1.0001,1.0000371 0 0 0 -0.90625,-0.3125 1.0001,1.0000371 0 0 0 -0.28125,0.094 L 9,1017.7384 9,969.36646 z m 39,13.99912 c -4.958732,0 -9,4.04103 -9,8.99943 0,4.9584 4.041274,8.99939 9,8.99939 4.958713,0 9,-4.04099 9,-8.99939 0,-4.9584 -4.041281,-8.99943 -9,-8.99943 z m 0,1.99987 c 3.877827,0 7,3.12197 7,6.99956 0,3.87759 -3.122167,6.99956 -7,6.99956 -3.877848,0 -7,-3.12197 -7,-6.99956 0,-3.87759 3.122158,-6.99956 7,-6.99956 z m 22.75,22.21735 20.21875,22.0924 A 1.0001,1.0000371 0 0 0 91,1029.7377 l 0,5.6246 -32.59375,0 A 1.0001,1.0000371 0 0 0 58.25,1035.1436 L 45.0625,1020.4257 70.75,1007.5828 z m -39,0.9999 24.03125,26.7796 -46.78125,0 0,-15.4053 22.75,-11.3743 z" fill="#000000" fill-opacity="1" stroke="none" marker="none" visibility="visible" display="inline" overflow="visible"/></g><text x="0" y="115" fill="#000000" font-size="5px" font-weight="bold" font-family="'Helvetica Neue', Helvetica, Arial-Unicode, Arial, Sans-serif">Created by joeartcon</text><text x="0" y="120" fill="#000000" font-size="5px" font-weight="bold" font-family="'Helvetica Neue', Helvetica, Arial-Unicode, Arial, Sans-serif">from the Noun Project</text></svg>