<svg xmlns="http://www.w3.org/2000/svg" viewBox="0 0 48 60" x="0px" y="0px"><title>Ui vol.1</title><g data-name="Layer 10"><path d="M46.16211,16.99121,30.55762,1.81836a.999.999,0,0,0-.69727-.2832H15.40723a4.9969,4.9969,0,0,0-5.02735,4.95507v5.18409H6.49023a4.96044,4.96044,0,0,0-4.95507,4.95507V41.50977a4.90263,4.90263,0,0,0,4.95507,4.95507H32.59277a4.90264,4.90264,0,0,0,4.95508-4.95507V36.32568H41.4375a4.93846,4.93846,0,0,0,5.02734-4.95507V17.708A1.00023,1.00023,0,0,0,46.16211,16.99121ZM30.84961,4.892,43.56946,17.25977H30.84961Zm4.69824,36.61774a2.89035,2.89035,0,0,1-2.95508,2.95507H6.49023a2.89035,2.89035,0,0,1-2.95507-2.95507V16.62939a2.95815,2.95815,0,0,1,2.95507-2.95507h3.88965V31.37061a4.93847,4.93847,0,0,0,5.02735,4.95507H35.54785Zm5.88965-7.18409H15.40723a2.96011,2.96011,0,0,1-3.02735-2.95507V6.49023a2.9955,2.9955,0,0,1,3.02735-2.95507H28.84961V18.25977a.99974.99974,0,0,0,1,1H44.46484V31.37061A2.9601,2.9601,0,0,1,41.4375,34.32568Z"/><path d="M18.51367,29.95068H17.48633V24a1,1,0,0,0-2,0v6.31689a1.636,1.636,0,0,0,1.63379,1.63379h1.39355a1,1,0,0,0,0-2Z"/><path d="M22.62012,30.11963a.716.716,0,0,0-.16992-.08984.72761.72761,0,0,0-.19043-.06006.955.955,0,0,0-.58008.06006.99587.99587,0,0,0-.32031.21.99051.99051,0,0,0,0,1.41992,1.0413,1.0413,0,0,0,.70019.29,1.325,1.325,0,0,0,.2002-.02.69332.69332,0,0,0,.19043-.06006.71676.71676,0,0,0,.16992-.08984,1.53409,1.53409,0,0,0,.14941-.12012,1.01394,1.01394,0,0,0,0-1.41992Z"/></g><text x="0" y="63" fill="#000000" font-size="5px" font-weight="bold" font-family="'Helvetica Neue', Helvetica, Arial-Unicode, Arial, Sans-serif">Created by Bloodline</text><text x="0" y="68" fill="#000000" font-size="5px" font-weight="bold" font-family="'Helvetica Neue', Helvetica, Arial-Unicode, Arial, Sans-serif">from the Noun Project</text></svg>